HIERARCHY
ROOT Hips
{
  OFFSET 3.13124 94.3669 -3.18751
  CHANNELS  6 Xposition Yposition Zposition Zrotation Xrotation Yrotation
  JOINT LeftUpLeg
  {
    OFFSET 8.64259 1.95398 -2.38835
    CHANNELS 3 Zrotation Xrotation Yrotation
    JOINT LeftLeg
    {
      OFFSET 43.7702 0 0
      CHANNELS 3 Zrotation Xrotation Yrotation
      JOINT LeftFoot
      {
        OFFSET 40.6238 0 0
        CHANNELS 3 Zrotation Xrotation Yrotation
        JOINT LeftToeBase
        {
          OFFSET 12.7242 0 0
          CHANNELS 3 Zrotation Xrotation Yrotation
          End Site
          {
            OFFSET 0 0 0
          }
        }
      }
    }
  }
  JOINT RightUpLeg
  {
    OFFSET -8.2249 1.95398 -2.59336
    CHANNELS 3 Zrotation Xrotation Yrotation
    JOINT RightLeg
    {
      OFFSET 43.5653 0 0
      CHANNELS 3 Zrotation Xrotation Yrotation
      JOINT RightFoot
      {
        OFFSET 40.6238 0 0
        CHANNELS 3 Zrotation Xrotation Yrotation
        JOINT RightToeBase
        {
          OFFSET 12.7242 0 0
          CHANNELS 3 Zrotation Xrotation Yrotation
          End Site
          {
            OFFSET 0 0 0
          }
        }
      }
    }
  }
  JOINT Spine
  {
    OFFSET 0.165834 0.87714 6.61349
    CHANNELS 3 Zrotation Xrotation Yrotation
    JOINT Spine1
    {
      OFFSET 7.38962 1.71661e-005 0
      CHANNELS 3 Zrotation Xrotation Yrotation
      JOINT Spine2
      {
        OFFSET 11.9445 1.14441e-005 0
        CHANNELS 3 Zrotation Xrotation Yrotation
        JOINT Spine3
        {
          OFFSET 14.7254 4.19617e-005 0
          CHANNELS 3 Zrotation Xrotation Yrotation
          JOINT Spine4
          {
            OFFSET 10.9679 0 0
            CHANNELS 3 Zrotation Xrotation Yrotation
            JOINT RightShoulder
            {
              OFFSET 2.46616 -1.6653 3.69651
              CHANNELS 3 Zrotation Xrotation Yrotation
              JOINT RightArm
              {
                OFFSET 13.0012 0 0
                CHANNELS 3 Zrotation Xrotation Yrotation
                JOINT RightForeArm
                {
                  OFFSET 28.7848 1.52588e-005 0
                  CHANNELS 3 Zrotation Xrotation Yrotation
                  JOINT RightHand
                  {
                    OFFSET 26.5688 1.52588e-005 0
                    CHANNELS 3 Zrotation Xrotation Yrotation
                    End Site
                    {
                      OFFSET 0 0 0
                    }
                  }
                }
              }
            }
            JOINT LeftShoulder
            {
              OFFSET 2.38034 -1.29275 -3.75231
              CHANNELS 3 Zrotation Xrotation Yrotation
              JOINT LeftArm
              {
                OFFSET 16.3182 6.10352e-005 0
                CHANNELS 3 Zrotation Xrotation Yrotation
                JOINT LeftForeArm
                {
                  OFFSET 27.0901 0 0
                  CHANNELS 3 Zrotation Xrotation Yrotation
                  JOINT LeftHand
                  {
                    OFFSET 24.5451 1.52588e-005 0
                    CHANNELS 3 Zrotation Xrotation Yrotation
                    End Site
                    {
                      OFFSET 0 0 0
                    }
                  }
                }
              }
            }
            JOINT Neck
            {
              OFFSET 5.0226 -0.0266342 0
              CHANNELS 3 Zrotation Xrotation Yrotation
              JOINT Head
              {
                OFFSET 6.69363 2.86102e-005 0
                CHANNELS 3 Zrotation Xrotation Yrotation
                End Site
                {
                  OFFSET 0 0 0
                }
              }
            }
          }
        }
      }
    }
  }
}
MOTION
Frames:	15
Frame Time:	0.0333333
-22.0624 88.8136 -31.6542 82.6721 34.5674 117.273 -170.829 43.4788 122.757 -50.9021 19.614 8.95653 80.2024 -1.57832 -1.46874 28.7808 7.10096e-006 -1.79611e-006 162.838 3.3236 85.3792 -7.46988 -2.10162 5.68206 0.693767 2.56353 7.18727 28.7808 1.85176e-005 1.94149e-005 -1.55449 6.32774 -81.5052 13.9607 -0.0822162 6.89903 2.27147 0.220768 6.89602 -20.1273 -2.14738 6.55843 -0.114688 -2.14737 6.55841 102.152 -18.1932 -82.1711 -36.8591 -32.6399 21.3593 65.7103 2.60041 -100.611 55.2446 -21.8452 -42.392 -77.7733 -21.0709 97.0474 12.1944 66.5428 -20.3166 34.324 15.1689 -22.8423 -73.1596 -60.83 -79.6117 12.766 12.8142 62.1178 -15.304 -2.0142 -26.9256 
-21.8873 88.8274 -31.6994 82.8129 34.5694 117.131 -170.592 43.2988 122.803 -50.8088 19.7819 8.87585 80.2148 -1.76994 -1.55206 28.7808 7.10096e-006 -1.79611e-006 162.817 3.1508 85.3272 -7.46288 -2.35855 5.61572 0.734255 2.59533 7.21429 28.7808 1.85176e-005 1.94149e-005 -1.56216 6.26827 -81.5402 14.0787 -0.156345 6.87652 2.38964 0.145721 6.87674 -20.0109 -2.21139 6.51477 0.00175397 -2.2114 6.51474 102.152 -18.1932 -82.1711 -36.1842 -33.6164 22.8425 66.1964 5.35921 -100.715 55.3521 -22.4204 -43.1271 -77.7733 -21.0709 97.0474 12.8771 67.9358 -19.3185 34.3382 15.2035 -22.11 -73.6377 -60.8515 -80.0933 12.3465 12.8024 62.7504 -14.4476 -2.1946 -26.5578 
-21.7126 88.8386 -31.7423 82.8266 34.6358 117.045 -170.377 43.2308 122.869 -50.6842 20.1041 8.62693 80.2032 -1.6983 -1.53845 28.7808 7.10096e-006 -1.79611e-006 162.788 3.04707 85.2223 -7.45859 -2.54408 5.62354 0.611075 2.71653 7.43724 28.7808 1.85176e-005 1.94149e-005 -1.58616 6.20742 -81.5689 14.198 -0.245306 6.85181 2.50905 0.0557649 6.85595 -19.8935 -2.28891 6.46456 0.119176 -2.28893 6.46456 102.152 -18.1932 -82.1711 -34.5453 -36.6317 25.1068 67.7354 8.67255 -103.106 56.9686 -23.2581 -43.1598 -77.7733 -21.0709 97.0474 13.4382 69.6032 -18.284 35.3732 16.6355 -21.4534 -77.2023 -60.9231 -83.6615 12.0069 12.8051 63.3696 -13.7875 -2.35177 -26.2286 
-21.5691 88.8346 -31.7842 82.7607 34.7342 117.066 -170.421 43.1182 122.754 -50.6805 19.9813 8.86777 80.3084 -1.90872 -1.61658 28.7808 7.10096e-006 -1.79611e-006 162.779 2.97565 85.2038 -7.47169 -2.64177 5.60094 0.60249 2.78442 7.55086 28.7808 1.85176e-005 1.94149e-005 -1.61466 6.16234 -81.6002 14.2857 -0.331389 6.82786 2.59686 -0.0312811 6.83579 -19.8076 -2.36392 6.41597 0.205 -2.36392 6.41596 102.152 -18.1932 -82.1711 -32.4184 -39.232 27.4675 70.3598 11.732 -105.488 59.624 -23.9602 -42.1577 -77.7733 -21.0709 97.0474 14.1274 71.0143 -17.6076 34.9738 16.515 -19.9239 -77.0443 -60.4786 -83.7332 12.0764 13.029 63.9425 -13.5773 -2.43044 -25.9466 
-21.453 88.826 -31.8284 82.7676 34.8554 117.029 -170.434 43.0175 122.725 -50.7013 20.0313 8.91762 80.3669 -1.97955 -1.64537 28.7808 7.10096e-006 -1.79611e-006 162.748 2.86717 85.147 -7.46509 -3.0379 5.567 0.57747 2.8329 7.60762 28.7808 1.85176e-005 1.94149e-005 -1.6295 6.13577 -81.6292 14.3372 -0.399597 6.81317 2.64843 -0.100082 6.82413 -19.7575 -2.42463 6.38156 0.255151 -2.42465 6.38155 102.152 -18.1932 -82.1711 -30.1541 -41.2633 29.9531 72.5757 14.4971 -107.535 62.2505 -23.9183 -40.2316 -77.7733 -21.0709 97.0474 14.793 72.5265 -16.9894 35.5635 17.8653 -18.7379 -82.5097 -60.2766 -89.4167 12.3661 13.3744 64.3868 -13.5586 -2.45013 -25.6603 
-21.3581 88.8046 -31.8671 82.9807 34.9814 116.931 -170.437 42.8005 122.68 -50.8475 20.108 9.21771 80.5338 -2.03916 -1.67154 28.7808 7.10096e-006 -1.79611e-006 162.755 2.60878 85.1198 -7.47474 -3.31763 5.5059 0.598826 2.86986 7.64555 28.7808 1.85176e-005 1.94149e-005 -1.61992 6.13031 -81.6595 14.3494 -0.43873 6.7897 2.66078 -0.140196 6.80238 -19.7467 -2.45496 6.34742 0.265982 -2.45499 6.34743 102.152 -18.1932 -82.1711 -27.8797 -44.1369 31.9885 75.0136 18.0331 -110.139 63.2713 -24.5116 -40.2574 -77.7733 -21.0709 97.0474 16.1799 74.1452 -17.13 35.5564 18.6185 -17.1774 -85.8602 -60.3897 -93.1989 12.6107 13.6689 64.9349 -13.4389 -2.51005 -25.7463 
-21.2839 88.7803 -31.8922 83.1272 35.2046 116.889 -170.35 42.8027 122.82 -50.9703 20.5047 9.12553 80.6393 -1.95354 -1.65807 28.7808 7.10096e-006 -1.79611e-006 162.798 2.32419 85.14 -7.49268 -3.32229 5.42411 0.690166 2.86578 7.61915 28.7808 1.85176e-005 1.94149e-005 -1.62094 6.12873 -81.6835 14.3555 -0.492661 6.76437 2.66699 -0.195184 6.77941 -19.7451 -2.49886 6.30711 0.267531 -2.49889 6.3071 102.152 -18.1932 -82.1711 -25.1236 -46.6942 34.1799 79.8819 20.5509 -113.396 65.1565 -24.2897 -38.4516 -77.7733 -21.0709 97.0474 17.2793 75.6678 -17.1794 35.4889 19.3958 -15.8429 -88.1834 -61.7905 -95.8585 12.845 14.0746 65.2085 -13.2992 -2.41542 -25.3501 
-21.2193 88.7596 -31.9501 83.1752 35.4283 116.872 -170.301 42.8566 122.917 -51.106 20.9235 8.97671 80.7047 -1.64597 -1.55399 28.7808 7.10096e-006 -1.79611e-006 162.871 2.10487 85.1789 -7.52869 -3.1109 5.30353 0.853412 2.78353 7.4601 28.7808 1.85176e-005 1.94149e-005 -1.61599 6.12616 -81.7039 14.3584 -0.519422 6.74613 2.66997 -0.222708 6.76236 -19.74 -2.51893 6.28172 0.272694 -2.51895 6.28174 102.152 -18.1932 -82.1711 -22.2599 -49.0879 36.4816 83.9871 23.1436 -116.31 65.2406 -23.8591 -37.5713 -77.7733 -21.0709 97.0474 20.9377 77.8842 -19.9537 35.0925 20.6252 -14.0092 -94.4069 -62.1036 -102.786 12.9231 14.3197 65.6339 -13.1653 -2.40251 -25.2624 
-21.1974 88.7207 -32.0188 83.0332 35.7021 116.924 -170.526 42.888 122.725 -51.2894 20.8276 9.18813 80.808 -1.70698 -1.57715 28.7808 7.10096e-006 -1.79611e-006 162.944 2.01445 85.2081 -7.56337 -2.97655 5.21398 1.06709 2.59975 7.10096 28.7808 1.85176e-005 1.94149e-005 -1.62653 6.12249 -81.7029 14.3646 -0.542976 6.73764 2.67621 -0.246562 6.75511 -19.7344 -2.53927 6.26591 0.278226 -2.53929 6.26591 102.152 -18.1932 -82.1711 -19.5516 -50.613 38.6434 86.9125 25.8828 -118.558 64.759 -22.4698 -35.7915 -77.7733 -21.0709 97.0474 27.2403 79.9293 -25.4795 34.0025 21.3166 -11.8907 -100.587 -61.5871 -110.16 13.1219 14.7113 66.1508 -13.1985 -2.28152 -25.3525 
-21.1718 88.6764 -32.1108 82.8724 35.9733 117.055 -170.692 42.9835 122.57 -51.466 20.7717 9.40382 80.9543 -1.52275 -1.50365 28.7808 7.10096e-006 -1.79611e-006 163.004 1.9139 85.2652 -7.62091 -2.38152 5.08773 1.29172 2.61754 7.14499 28.7808 1.85176e-005 1.94149e-005 -1.59644 6.10647 -81.7481 14.403 -0.507717 6.67605 2.71492 -0.214075 6.69184 -19.6976 -2.48686 6.21825 0.315005 -2.48686 6.21824 102.152 -18.1932 -82.1711 -16.4684 -53.314 41.3571 90.9352 29.0061 -121.533 64.2187 -21.6893 -34.814 -77.7733 -21.0709 97.0474 51.1394 82.9794 -48.5971 32.2944 23.7606 -8.87248 -109.555 -59.3393 -120.861 12.1532 14.2386 66.8582 -12.1778 -2.5417 -25.498 
-21.1616 88.6264 -32.2155 82.8082 36.1407 117.102 -170.908 42.9831 122.554 -51.742 20.9226 9.56905 81.1442 -1.7047 -1.57847 28.7808 7.10096e-006 -1.79611e-006 162.987 1.83185 85.2254 -7.62805 -2.52667 5.05513 1.28747 2.62106 7.13605 28.7808 1.85176e-005 1.94149e-005 -1.61675 6.13532 -81.7421 14.3413 -0.549036 6.73341 2.65295 -0.252832 6.75095 -19.758 -2.54342 6.26075 0.254647 -2.54344 6.26074 102.152 -18.1932 -82.1711 -14.7805 -53.5969 42.1292 95.2023 30.2799 -123.582 62.2599 -19.2604 -32.195 -77.7733 -21.0709 97.0474 43.9638 82.6751 -40.5896 32.0526 21.4205 -8.24511 -109.031 -60.3127 -119.381 14.0728 15.782 66.3742 -13.4761 -1.9053 -25.1835 
-21.1555 88.5839 -32.3276 82.7716 36.2123 117.121 -170.827 43.106 122.536 -51.8709 20.9594 9.44108 81.1943 -1.49559 -1.49949 28.7808 7.10096e-006 -1.79611e-006 163.005 1.7908 85.1714 -7.59908 -2.83863 5.00697 1.32603 2.68291 7.21689 28.7808 1.85176e-005 1.94149e-005 -1.5746 6.11326 -81.757 14.3907 -0.483534 6.68865 2.70254 -0.189395 6.70352 -19.7093 -2.46734 6.23664 0.303373 -2.46736 6.23664 102.152 -18.1932 -82.1711 -12.3557 -56.1263 44.5505 98.2476 32.9105 -125.681 59.8578 -18.8159 -32.6852 -77.7733 -21.0709 97.0474 78.6917 84.3103 -74.8186 29.868 21.7766 -5.02762 -116.9 -59.25 -128.364 13.5257 15.4974 66.7481 -12.5726 -2.12455 -25.1259 
-21.1567 88.5565 -32.4532 82.5951 36.3538 117.206 -170.904 43.2448 122.456 -52.042 21.0559 9.40548 81.2853 -1.47255 -1.49573 28.7808 7.10096e-006 -1.79611e-006 163.028 1.83335 85.1443 -7.58028 -3.09698 4.95083 1.10347 2.63768 7.14636 28.7808 1.85176e-005 1.94149e-005 -1.56674 6.10909 -81.7321 14.3995 -0.443982 6.70896 2.71134 -0.148981 6.72197 -19.6992 -2.43585 6.26876 0.31348 -2.43589 6.26875 102.152 -18.1932 -82.1711 -10.9985 -57.2668 45.7267 101.611 35.1525 -127.254 59.1777 -18.3955 -32.2913 -77.7733 -21.0709 97.0474 105.22 83.639 -100.365 27.509 20.875 -2.60724 -121.576 -56.5178 -134.441 13.8668 15.8839 66.7468 -12.6624 -1.94623 -25.1169 
-21.178 88.5195 -32.5833 82.3733 36.6886 117.344 -171.107 43.3965 122.32 -52.2576 21.1948 9.4626 81.3625 -1.27589 -1.42591 28.7808 7.10096e-006 -1.79611e-006 163.057 1.77743 85.1028 -7.58349 -2.95898 4.91186 1.19837 2.68241 7.2222 28.7808 1.85176e-005 1.94149e-005 -1.57503 6.11856 -81.7145 14.3785 -0.45564 6.69843 2.69032 -0.161067 6.71194 -19.7207 -2.44398 6.25522 0.291958 -2.44401 6.2552 102.152 -18.1932 -82.1711 -9.58158 -58.7473 47.5338 105.828 36.1468 -129.134 58.881 -17.9171 -31.5011 -77.7733 -21.0709 97.0474 119.251 82.4373 -113.639 25.4316 19.3037 -0.540376 -124.321 -55.8799 -138.003 14.2375 16.3637 67.0882 -12.6904 -1.81249 -25.2625 
-21.2331 88.475 -32.7175 82.1612 36.9991 117.495 -171.37 43.5317 122.118 -52.527 21.1443 9.66079 81.494 -1.16829 -1.38298 28.7808 7.10096e-006 -1.79611e-006 163.079 1.77438 85.062 -7.59616 -2.83908 4.89847 1.00124 2.64984 7.2026 28.7808 1.85176e-005 1.94149e-005 -1.58253 6.12882 -81.6863 14.3567 -0.45566 6.70113 2.66855 -0.160978 6.71463 -19.7424 -2.44466 6.25777 0.270272 -2.44469 6.25777 102.152 -18.1932 -82.1711 -8.3521 -60.4373 48.9362 111.076 37.2085 -131.474 59.218 -17.9833 -31.195 -77.7733 -21.0709 97.0474 128.304 80.9041 -121.923 24.0723 16.9439 0.0368689 -125.797 -56.3188 -139.808 14.5806 16.7562 66.9711 -12.7463 -1.61401 -25.1549 
